<?xml version="1.0" standalone="no"?><!DOCTYPE svg PUBLIC "-//W3C//DTD SVG 1.1//EN" "http://www.w3.org/Graphics/SVG/1.1/DTD/svg11.dtd"><svg t="1653824416871" class="icon" viewBox="0 0 1024 1024" version="1.1" xmlns="http://www.w3.org/2000/svg" p-id="991" xmlns:xlink="http://www.w3.org/1999/xlink" width="200" height="200"><defs><style type="text/css"></style></defs><path d="M516.472 946.04c-35.688 0.32-64.872-28.4-65.16-64.088l-1.104-136.856a64.64 64.64 0 0 1 64.12-65.136c35.672-0.28 64.832 28.408 65.144 64.128l1.08 136.824c0.304 35.688-28.408 64.88-64.08 65.128z" fill="#E5226B" p-id="992"></path><path d="M938.072 979.992l-842.616 6.792c-35.688 0.28-64.88-28.44-65.16-64.096a64.648 64.648 0 0 1 64.12-65.168l842.648-6.784c35.656-0.28 64.816 28.432 65.128 64.128 0.248 35.688-28.4 64.848-64.12 65.128z" fill="#0092D2" p-id="993"></path><path d="M1007.992 650.336c0.384 49.856-39.632 90.592-89.496 91.008L111.2 747.816c-49.856 0.432-90.592-39.704-90.968-89.56L16 134.68c-0.376-49.808 39.664-90.56 89.52-90.96l807.296-6.504c49.856-0.392 90.568 39.696 90.944 89.504l4.232 523.616z" fill="#EF962F" p-id="994"></path><path d="M111.2 747.816c-49.856 0.432-90.592-39.704-90.968-89.56L16 134.68c-0.376-49.808 39.664-90.56 89.52-90.96l807.296-6.504" fill="#F4A417" p-id="995"></path></svg>