<?xml version="1.0" standalone="no"?><!DOCTYPE svg PUBLIC "-//W3C//DTD SVG 1.1//EN" "http://www.w3.org/Graphics/SVG/1.1/DTD/svg11.dtd"><svg t="1653824425054" class="icon" viewBox="0 0 1024 1024" version="1.1" xmlns="http://www.w3.org/2000/svg" p-id="1133" xmlns:xlink="http://www.w3.org/1999/xlink" width="200" height="200"><defs><style type="text/css"></style></defs><path d="M146.505 291.893v550.278c0 20.262 16.425 36.687 36.687 36.687h660.334c0 0 0 0 0 0 20.258 0 36.682-16.422 36.682-36.682 0-0.002 0-0.005 0-0.007v-550.277h-733.703z" fill="#9B9489" p-id="1134"></path><path d="M757.842 393.706v0z" fill="#BBB3A6" p-id="1135"></path><path d="M843.52 145.148h-660.334c-20.262 0-36.687 16.425-36.687 36.687v110.057h733.699v-110.057c0-0.004 0-0.007 0-0.010 0-20.257-16.42-36.677-36.677-36.677 0 0 0 0 0 0z" fill="#6D6D6D" p-id="1136"></path><path d="M216.83 353.026v463.466l593.071-463.472h-593.071z" fill="#F8FCFF" p-id="1137"></path><path d="M502.049 593.596l-285.219 222.892h593.071v-463.462l-307.852 240.569z" fill="#EFF2F4" p-id="1138"></path><path d="M216.809 218.517c0 0.002 0 0.004 0 0.007 0 16.459 13.342 29.801 29.801 29.801 0.002 0 0.005 0 0.007 0 16.461 0 29.805-13.344 29.805-29.805 0-16.461-13.344-29.806-29.805-29.806-16.46 0.004-29.802 13.345-29.805 29.806z" fill="#EC4543" p-id="1139"></path><path d="M315.401 218.517c0 0.002 0 0.004 0 0.007 0 16.459 13.342 29.801 29.801 29.801 0.002 0 0.005 0 0.007 0 16.461 0 29.805-13.344 29.805-29.805 0-16.461-13.344-29.806-29.805-29.806-16.461 0.004-29.802 13.345-29.805 29.806z" fill="#FFCA31" p-id="1140"></path><path d="M413.993 218.517c0 0.007 0 0.011 0 0.019 0 16.461 13.344 29.805 29.805 29.805 16.455 0 29.795-13.334 29.806-29.786v-0.038c0-16.461-13.344-29.805-29.806-29.805s-29.805 13.344-29.805 29.805z" fill="#B3EB35" p-id="1141"></path><path d="M729.74 414.842v-0.844h-294.121v54.918h225.983l68.143-53.251v-0.822z" fill="#7AC3E1" p-id="1142"></path><path d="M661.597 468.916h68.143v-53.251l-68.143 53.251z" fill="#3BAFDA" p-id="1143"></path><path d="M355.003 706.21h-55.14v45.378l55.14-43.084v-2.294z" fill="#7AC3E1" p-id="1144"></path><path d="M299.866 751.593v9.756h55.14v-52.839l-55.14 43.084z" fill="#3BAFDA" p-id="1145"></path><path d="M299.866 561.956h55.14v55.133h-55.14v-55.133zM299.866 417.703h55.14v55.155h-55.14v-55.155z" fill="#7AC3E1" p-id="1146"></path><path d="M436.589 706.927h-0.864v54.918h294.010v-54.918h-293.145z" fill="#3BAFDA" p-id="1147"></path><path d="M541.331 561.987h-105.712v54.955h36.555l70.327-54.955h-1.171z" fill="#7AC3E1" p-id="1148"></path><path d="M542.501 561.987l-70.327 54.95h258.742v-54.95h-188.415z" fill="#3BAFDA" p-id="1149"></path></svg>