<?xml version="1.0" standalone="no"?><!DOCTYPE svg PUBLIC "-//W3C//DTD SVG 1.1//EN" "http://www.w3.org/Graphics/SVG/1.1/DTD/svg11.dtd"><svg t="1653824429434" class="icon" viewBox="0 0 1024 1024" version="1.1" xmlns="http://www.w3.org/2000/svg" p-id="1287" xmlns:xlink="http://www.w3.org/1999/xlink" width="200" height="200"><defs><style type="text/css"></style></defs><path d="M277.333333 266.666667m-32 0a32 32 0 1 0 64 0 32 32 0 1 0-64 0Z" fill="#0367FD" p-id="1288"></path><path d="M448 266.666667m-32 0a32 32 0 1 0 64 0 32 32 0 1 0-64 0Z" fill="#0367FD" p-id="1289"></path><path d="M341.333333 181.333333m-32 0a32 32 0 1 0 64 0 32 32 0 1 0-64 0Z" fill="#0367FD" p-id="1290"></path><path d="M469.333333 160m-32 0a32 32 0 1 0 64 0 32 32 0 1 0-64 0Z" fill="#0367FD" p-id="1291"></path><path d="M522.666667 74.666667m-32 0a32 32 0 1 0 64 0 32 32 0 1 0-64 0Z" fill="#0367FD" p-id="1292"></path><path d="M576 181.333333m-32 0a32 32 0 1 0 64 0 32 32 0 1 0-64 0Z" fill="#0367FD" p-id="1293"></path><path d="M618.666667 266.666667m-32 0a32 32 0 1 0 64 0 32 32 0 1 0-64 0Z" fill="#0367FD" p-id="1294"></path><path d="M746.666667 245.333333m-32 0a32 32 0 1 0 64 0 32 32 0 1 0-64 0Z" fill="#0367FD" p-id="1295"></path><path d="M661.333333 117.333333m-32 0a32 32 0 1 0 64 0 32 32 0 1 0-64 0Z" fill="#0367FD" p-id="1296"></path><path d="M722.688 341.333333H301.312c-52.053333 0-92.714667 43.584-87.530667 93.824l48.384 469.333334C266.666667 948.117333 304.490667 981.333333 349.696 981.333333h324.608c45.205333 0 83.029333-33.216 87.530667-76.842666l48.384-469.333334C815.402667 384.917333 774.741333 341.333333 722.688 341.333333zM426.666667 832a32 32 0 0 1-64 0V490.666667a32 32 0 0 1 64 0v341.333333z m117.333333 0a32 32 0 0 1-64 0V490.666667a32 32 0 0 1 64 0v341.333333z m117.333333 0a32 32 0 0 1-64 0V490.666667a32 32 0 0 1 64 0v341.333333z" fill="#0367FD" p-id="1297"></path></svg>